{"title":"Stolichani v poveche - Season 4 - Episode 8","uid":7803047,"size":590799288,"categoryP":"video","categoryS":"tv_shows","magnet":"?xt=urn:btih:24ea2bca7f5358e9d367984a33ebeb44ee9e8f59&amp;dn=Stolichani+v+poveche+-+Season+4+-+Episode+8&amp;tr=udp%3A%2F%2Ftracker.openbittorrent.com%3A80&amp;tr=udp%3A%2F%2Fopen.demonii.com%3A1337&amp;tr=udp%3A%2F%2Ftracker.coppersurfer.tk%3A6969&amp;tr=udp%3A%2F%2Fexodus.desync.com%3A6969","seeders":1,"leechers":0,"uploader":null,"files":1,"time":1352329700,"description":"HQ WEBrip\n\nFormat                                   : AVI\nFormat/Info                              : Audio Video Interleave\nFile size                                : 563 MiB\nDuration                                 : 43mn 14s\nOverall bit rate                         : 1 822 Kbps\nWriting application                      : Lavf52.84.0\n\nVideo\nFormat                                   : MPEG-4 Visual\nFormat profile                           : Advanced Simple@L5\nFormat settings, BVOP                    : 2\nFormat settings, QPel                    : No\nFormat settings, GMC                     : No warppoints\nFormat settings, Matrix                  : Default (H.263)\nMuxing mode                              : Packed bitstream\nCodec ID                                 : XVID\nCodec ID/Hint                            : XviD\nDuration                                 : 43mn 14s\nBit rate                                 : 1 683 Kbps\nWidth                                    : 720 pixels\nHeight                                   : 400 pixels\nDisplay aspect ratio                     : 16:9\nFrame rate                               : 25.000 fps\nColor space                              : YUV\nChroma subsampling                       : 4:2:0\nBit depth                                : 8 bits\nScan type                                : Progressive\nCompression mode                         : Lossy\nBits/(Pixel*Frame)                       : 0.234\nStream size                              : 520 MiB (92%)\nWriting library                          : XviD 1.1.2 (UTC 2006-11-01)\n\nAudio\nFormat                                   : AC-3\nFormat/Info                              : Audio Coding 3\nMode extension                           : CM (complete main)\nFormat settings, Endianness              : Big\nCodec ID                                 : 2000\nDuration                                 : 43mn 14s\nBit rate mode                            : Constant\nBit rate                                 : 128 Kbps\nChannel(s)                               : 2 channels\nChannel positions                        : Front: L R\nSampling rate                            : 48.0 KHz\nBit depth                                : 16 bits\nCompression mode                         : Lossy\nStream size                              : 39.6 MiB (7%)\nAlignment                                : Aligned on interleaves\nInterleave, duration                     : 32 ms (0.80 video frame)\nInterleave, preload duration             : 512 ms\n\n","torrent":{"xt":"urn:btih:24ea2bca7f5358e9d367984a33ebeb44ee9e8f59","amp;dn":"Stolichani+v+poveche+-+Season+4+-+Episode+8","amp;tr":["udp%3A%2F%2Ftracker.openbittorrent.com%3A80","udp%3A%2F%2Fopen.demonii.com%3A1337","udp%3A%2F%2Ftracker.coppersurfer.tk%3A6969","udp%3A%2F%2Fexodus.desync.com%3A6969"],"infoHash":"24ea2bca7f5358e9d367984a33ebeb44ee9e8f59","infoHashBuffer":{"type":"Buffer","data":[36,234,43,202,127,83,88,233,211,103,152,74,51,235,235,68,238,158,143,89]},"announce":[],"urlList":[]}}